<?xml version="1.0" encoding="UTF-8" standalone="no"?>
<!DOCTYPE svg PUBLIC "-//W3C//DTD SVG 1.1//EN" "http://www.w3.org/Graphics/SVG/1.1/DTD/svg11.dtd">
<svg width="100%" height="100%" viewBox="0 0 251 251" version="1.1" xmlns="http://www.w3.org/2000/svg" xmlns:xlink="http://www.w3.org/1999/xlink" xml:space="preserve" xmlns:serif="http://www.serif.com/" style="fill-rule:evenodd;clip-rule:evenodd;stroke-linejoin:round;stroke-miterlimit:2;">
    <g transform="matrix(1,0,0,1,-527.231098,-1206.577523)">
        <g transform="matrix(1,0,0,1,-11448.476585,843.105244)">
            <g transform="matrix(1,0,0,1,2277.281854,-1207.686279)">
                <path d="M9823.924,1571.159C9893.188,1571.159 9949.421,1627.392 9949.421,1696.656C9949.421,1765.92 9893.188,1822.154 9823.924,1822.154C9754.659,1822.154 9698.426,1765.92 9698.426,1696.656C9698.426,1627.392 9754.659,1571.159 9823.924,1571.159ZM9823.924,1637.825C9791.454,1637.825 9765.092,1664.187 9765.092,1696.656C9765.092,1729.126 9791.454,1755.487 9823.924,1755.487C9856.393,1755.487 9882.755,1729.126 9882.755,1696.656C9882.755,1664.187 9856.393,1637.825 9823.924,1637.825Z" style="fill:rgb(28,25,23);"/>
            </g>
        </g>
    </g>
</svg>
